<mxfile host="app.diagrams.net" modified="2023-12-25T06:58:49.229Z" agent="Mozilla/5.0 (Windows NT 10.0; Win64; x64) AppleWebKit/537.36 (KHTML, like Gecko) Chrome/120.0.0.0 Safari/537.36" version="22.1.11" etag="v0lgnikL6FXv-v7hDXDf" type="github">
  <diagram name="第 1 页" id="NrQw1u5KZVTpKxk_xpym">
    <mxGraphModel>
      <root>
        <mxCell id="0" />
        <mxCell id="1" parent="0" />
      </root>
    </mxGraphModel>
  </diagram>
</mxfile>
